<svg xmlns="http://www.w3.org/2000/svg" xmlns:xlink="http://www.w3.org/1999/xlink" width="500" zoomAndPan="magnify" viewBox="0 0 375 374.999991" height="500" preserveAspectRatio="xMidYMid meet" version="1.0"><path fill="#00eb00" d="M 270.382812 327.53125 C 274.707031 334.71875 272.105469 344.128906 264.398438 347.429688 C 224.980469 364.261719 180.367188 367.765625 138.265625 357.011719 C 91.109375 345.003906 50.902344 316.074219 26.289062 276.511719 C 1.675781 236.945312 -5.332031 189.929688 6.757812 145.570312 C 18.84375 101.214844 49.09375 63.082031 90.90625 39.414062 C 132.714844 15.746094 182.847656 8.4375 230.355469 19.074219 C 277.859375 29.710938 319.058594 57.414062 344.957031 96.246094 C 370.855469 135.082031 379.46875 181.863281 368.867188 226.570312 C 359.292969 266.984375 334.738281 302.722656 299.816406 327.589844 C 293.539062 332.058594 284.894531 330.1875 280.515625 323.820312 L 280.164062 323.292969 C 275.378906 316.367188 277.449219 306.898438 284.195312 301.84375 C 311.496094 281.273438 330.707031 252.519531 338.355469 220.203125 C 347.175781 183.003906 340.019531 144.082031 318.472656 111.792969 C 296.925781 79.503906 262.648438 56.417969 223.113281 47.566406 C 183.578125 38.710938 141.882812 44.789062 107.082031 64.484375 C 72.277344 84.179688 47.136719 115.914062 37.0625 152.820312 C 26.992188 189.726562 32.832031 228.851562 53.296875 261.78125 C 73.765625 294.714844 107.226562 318.761719 146.46875 328.757812 C 181.183594 337.609375 217.945312 334.835938 250.53125 321.128906 C 257.683594 318.121094 266.121094 320.429688 270.09375 327.089844 L 270.355469 327.558594 Z M 270.382812 327.53125 " fill-opacity="1" fill-rule="nonzero"/><path fill="#00eb00" d="M 309.070312 139.875 C 315.085938 137.476562 321.976562 140.253906 324.050781 146.390625 C 334.355469 176.808594 333.277344 209.828125 320.75 239.75 C 306.734375 273.238281 279.464844 300.121094 244.867188 314.613281 C 210.265625 329.109375 171.082031 329.984375 135.78125 317.128906 C 100.480469 304.269531 71.957031 278.644531 56.246094 245.828125 C 40.539062 213.015625 38.992188 175.640625 51.894531 141.714844 C 64.800781 107.789062 91.167969 80.148438 125.269531 64.628906 C 159.375 49.113281 198.5 47.039062 234.207031 58.84375 C 265.828125 69.304688 292.515625 89.90625 309.859375 116.9375 C 313.539062 122.664062 311 130.113281 304.835938 133.007812 C 299.027344 135.753906 292.109375 133.359375 288.574219 127.980469 C 274.121094 105.976562 252.195312 89.234375 226.296875 80.644531 C 196.601562 70.855469 164.046875 72.578125 135.664062 85.496094 C 107.285156 98.410156 85.355469 121.4375 74.613281 149.632812 C 63.867188 177.832031 65.152344 208.953125 78.234375 236.246094 C 91.3125 263.535156 115.082031 284.839844 144.425781 295.53125 C 173.769531 306.226562 206.382812 305.496094 235.171875 293.429688 C 263.960938 281.359375 286.648438 259.007812 298.296875 231.160156 C 308.371094 207.140625 309.539062 180.695312 301.890625 156.121094 C 299.875 149.632812 302.765625 142.386719 309.070312 139.875 Z M 309.070312 139.875 " fill-opacity="1" fill-rule="nonzero"/><path fill="#00eb00" d="M 108.949219 252.402344 C 105.183594 255.472656 99.636719 255.089844 96.65625 251.261719 C 81.125 231.304688 73.445312 206.761719 75.136719 181.894531 C 77.035156 154.191406 90.410156 128.332031 112.394531 109.835938 C 134.378906 91.339844 163.167969 81.753906 192.601562 83.128906 C 222.03125 84.5 249.742188 96.6875 269.683594 117.109375 C 289.625 137.535156 300.28125 164.507812 299.320312 192.238281 C 298.355469 219.96875 285.828125 246.238281 264.488281 265.347656 C 243.144531 284.457031 214.644531 294.917969 185.214844 294.421875 C 159.109375 293.984375 134.058594 285.011719 114.351562 269.175781 C 110.234375 265.875 110.320312 259.738281 114.175781 256.171875 C 117.738281 252.898438 123.199219 252.988281 126.992188 255.996094 C 143.34375 268.972656 163.988281 276.335938 185.535156 276.6875 C 210.03125 277.09375 233.742188 268.386719 251.492188 252.492188 C 269.246094 236.59375 279.667969 214.738281 280.488281 191.652344 C 281.304688 168.570312 272.457031 146.128906 255.84375 129.148438 C 239.230469 112.171875 216.222656 102.03125 191.726562 100.894531 C 167.226562 99.753906 143.285156 107.761719 124.980469 123.128906 C 106.671875 138.5 95.546875 160.007812 93.96875 183.03125 C 92.597656 202.875 98.4375 222.480469 110.320312 238.699219 C 113.445312 242.964844 113.035156 249.042969 108.949219 252.375 Z M 108.949219 252.402344 " fill-opacity="1" fill-rule="nonzero"/><path fill="#00eb00" d="M 257.332031 158.75 C 260.925781 157.230469 265.097656 158.898438 266.265625 162.636719 C 272.222656 181.339844 271.609375 201.675781 264.398438 220.085938 C 256.3125 240.714844 240.542969 257.253906 220.542969 266.167969 C 200.542969 275.078125 177.914062 275.632812 157.503906 267.746094 C 137.097656 259.855469 120.570312 244.074219 111.488281 223.914062 C 102.410156 203.75 101.503906 180.726562 108.949219 159.859375 C 116.394531 138.996094 131.636719 121.960938 151.34375 112.40625 C 171.054688 102.851562 193.679688 101.535156 214.324219 108.78125 C 232.804688 115.269531 248.367188 128.15625 258.382812 145.046875 C 260.339844 148.347656 258.910156 152.527344 255.492188 154.25 C 252.019531 156.003906 247.785156 154.542969 245.710938 151.242188 C 237.363281 137.742188 224.691406 127.484375 209.769531 122.226562 C 192.601562 116.175781 173.796875 117.257812 157.386719 125.207031 C 140.980469 133.152344 128.308594 147.324219 122.117188 164.683594 C 115.925781 182.039062 116.65625 201.179688 124.21875 217.980469 C 131.78125 234.78125 145.535156 247.875 162.5 254.449219 C 179.460938 261.023438 198.324219 260.554688 214.9375 253.132812 C 231.550781 245.710938 244.660156 231.949219 251.40625 214.796875 C 257.304688 199.804688 257.917969 183.265625 253.273438 167.984375 C 252.164062 164.300781 253.800781 160.242188 257.304688 158.75 Z M 257.332031 158.75 " fill-opacity="1" fill-rule="nonzero"/><path fill="#00eb00" d="M 179.023438 131.078125 C 178.617188 128.214844 180.601562 125.554688 183.460938 125.378906 C 197.886719 124.53125 212.191406 128.742188 223.902344 137.359375 C 237.011719 147.03125 245.828125 161.46875 248.398438 177.570312 C 250.96875 193.667969 247.113281 210.121094 237.683594 223.417969 C 228.25 236.710938 213.945312 245.742188 197.914062 248.546875 C 181.886719 251.351562 165.359375 247.785156 151.957031 238.523438 C 138.554688 229.261719 129.300781 215.148438 126.207031 199.132812 C 123.109375 183.121094 126.46875 166.550781 135.488281 152.964844 C 143.546875 140.839844 155.578125 131.984375 169.417969 127.863281 C 172.191406 127.046875 174.9375 128.859375 175.550781 131.691406 C 176.164062 134.527344 174.324219 137.246094 171.578125 138.121094 C 160.425781 141.65625 150.730469 148.902344 144.191406 158.75 C 136.6875 170.03125 133.914062 183.820312 136.484375 197.148438 C 139.050781 210.472656 146.730469 222.246094 157.914062 229.933594 C 169.097656 237.617188 182.820312 240.628906 196.164062 238.261719 C 209.507812 235.894531 221.390625 228.382812 229.246094 217.339844 C 237.097656 206.292969 240.308594 192.589844 238.179688 179.207031 C 236.046875 165.820312 228.71875 153.8125 217.800781 145.777344 C 208.28125 138.765625 196.71875 135.285156 185.007812 135.78125 C 182.117188 135.898438 179.492188 133.941406 179.082031 131.109375 Z M 179.023438 131.078125 " fill-opacity="1" fill-rule="nonzero"/><path fill="#00eb00" d="M 210.851562 154.191406 L 214.324219 151.941406 C 224.222656 159.628906 230.03125 168.746094 232.308594 179.03125 C 234.851562 190.542969 232.777344 202.609375 226.527344 212.605469 C 220.28125 222.597656 210.351562 229.726562 198.878906 232.476562 C 187.402344 235.222656 175.34375 233.320312 165.242188 227.214844 C 155.140625 221.109375 147.871094 211.289062 144.980469 199.863281 C 142.089844 188.4375 143.78125 176.3125 149.710938 166.144531 C 155.636719 155.976562 165.359375 148.523438 176.71875 145.425781 C 186.878906 142.679688 197.625 143.585938 207.140625 147.910156 L 209.683594 151.09375 L 208.660156 152.90625 C 207.636719 154.71875 205.332031 155.359375 203.433594 154.511719 C 195.667969 151.125 186.964844 150.453125 178.703125 152.703125 C 169.242188 155.273438 161.15625 161.46875 156.21875 169.941406 C 151.285156 178.417969 149.855469 188.496094 152.277344 197.996094 C 154.703125 207.492188 160.746094 215.671875 169.15625 220.757812 C 177.5625 225.839844 187.578125 227.417969 197.125 225.140625 C 206.675781 222.859375 214.9375 216.929688 220.132812 208.628906 C 225.332031 200.332031 227.054688 190.28125 224.953125 180.695312 C 223.113281 172.339844 218.46875 164.917969 211.871094 159.628906 L 209.738281 156.003906 L 210.878906 154.25 Z M 210.851562 154.191406 " fill-opacity="1" fill-rule="nonzero"/><path fill="#00eb00" d="M 159.460938 187.972656 L 156.773438 186.832031 C 157.328125 177.65625 160.335938 170.320312 165.476562 164.683594 C 171.199219 158.398438 179.054688 154.6875 187.375 154.398438 C 195.695312 154.105469 203.785156 157.203125 209.914062 163.074219 C 216.046875 168.949219 219.726562 177.070312 220.132812 185.75 C 220.542969 194.429688 217.683594 202.902344 212.164062 209.390625 C 206.644531 215.878906 198.878906 219.820312 190.585938 220.40625 C 182.292969 220.992188 174.089844 218.128906 167.8125 212.488281 C 162.148438 207.402344 158.410156 200.417969 157.214844 192.792969 L 158.089844 190.074219 L 159.550781 189.957031 L 162.292969 190.921875 C 163.636719 198.550781 166.703125 204.160156 171.285156 208.28125 C 176.542969 212.984375 183.34375 215.351562 190.234375 214.882812 C 197.125 214.417969 203.578125 211.113281 208.191406 205.707031 C 212.804688 200.300781 215.171875 193.261719 214.820312 186.042969 C 214.46875 178.824219 211.40625 172.074219 206.324219 167.195312 C 201.242188 162.316406 194.5 159.714844 187.578125 159.976562 C 180.660156 160.242188 174.117188 163.308594 169.359375 168.539062 C 165.183594 173.128906 162.671875 179.058594 162.207031 185.3125 L 160.949219 188 L 159.492188 188.03125 Z M 159.460938 187.972656 " fill-opacity="1" fill-rule="nonzero"/></svg>